<svg width="285" height="162" viewBox="0 0 285 162" fill="none" xmlns="http://www.w3.org/2000/svg">
<g clip-path="url(#clip0_868_874)">
<path d="M3.26893 54.577L12.0343 154.766C12.3255 158.094 15.278 160.566 18.6136 160.274L278.104 137.571C281.44 137.28 283.918 134.333 283.627 131.004L272.749 6.66467C272.458 3.33643 269.505 0.864472 266.169 1.1563L80.2576 17.4645" fill="white"/>
<path d="M278.153 138.126L18.6621 160.828C15.0058 161.148 11.7743 158.443 11.4551 154.794L2.66918 54.3712L2.85415 54.269L3.84162 54.7201L12.5902 154.717C12.8534 157.725 15.5269 159.963 18.5632 159.698L278.054 136.995C281.069 136.731 283.334 134.061 283.071 131.053L272.193 6.71296C271.93 3.70474 269.256 1.46636 266.22 1.732L80.308 18.0402L80.2072 16.8881L266.119 0.579913C269.775 0.260028 273.007 2.96555 273.326 6.61382L284.204 130.953C284.523 134.602 281.811 137.827 278.155 138.147L278.153 138.126Z" fill="black"/>
<path d="M80.4249 17.4065L40.7284 57.6844C40.7284 57.6844 29.7793 70.4448 19.9453 65.4147C16.1572 63.4888 3.11464 54.7837 3.11464 54.7837L80.4249 17.4065Z" fill="white"/>
<path d="M25.9107 67.1067C23.687 67.3013 21.584 66.9048 19.6676 65.9331C15.9222 64.0034 3.31763 55.6255 2.79038 55.2631L2.8542 54.2686L80.1645 16.8915L80.8258 17.801L41.1293 58.0789C40.8951 58.3574 38.2103 61.4085 34.3149 63.9206C31.3991 65.8096 28.5621 66.8747 25.9107 67.1067ZM4.26285 54.8548C7.19199 56.8129 17.0441 63.2818 20.2018 64.8974C29.5178 69.6719 40.1678 57.4321 40.2867 57.3142L40.3081 57.3123L77.6877 19.3655L4.26285 54.8548Z" fill="black"/>
<path d="M103.834 134.501C103.834 134.501 103.978 134.424 103.97 134.339L103.871 133.208C103.871 133.208 103.794 133.064 103.709 133.072L102.618 133.167C102.618 133.167 102.474 133.244 102.482 133.33L102.581 134.461C102.581 134.461 102.658 134.604 102.743 134.597L103.834 134.501ZM99.8567 134.849C99.8567 134.849 100.001 134.772 99.9933 134.687L99.6667 130.953C99.7052 129.424 100.627 128.633 101.782 128.532C101.931 128.519 102.06 128.508 102.19 128.518C102.275 128.511 102.336 128.462 102.328 128.377L102.267 127.673C102.267 127.673 102.19 127.529 102.102 127.516C101.993 127.504 101.842 127.495 101.714 127.507C100.73 127.593 99.8516 128.142 99.442 129.124L99.4016 127.924C99.4016 127.924 99.3244 127.78 99.2389 127.788L98.2767 127.872C98.2767 127.872 98.1326 127.949 98.1401 128.034L98.4722 131.337L98.7318 134.797C98.7318 134.797 98.809 134.941 98.8945 134.934L99.8781 134.847L99.8567 134.849ZM95.7648 130.929L91.8305 131.273C91.8859 129.936 92.5029 129.108 93.6575 129.007C94.919 128.896 95.6445 129.8 95.7862 130.927M96.1354 132.703C96.1354 132.703 95.97 132.782 95.9774 132.867C95.8513 133.888 95.2584 134.499 94.2321 134.589C92.8423 134.711 92.0583 133.876 91.8876 132.171L97.062 131.719C97.062 131.719 97.206 131.642 97.1986 131.556C96.9328 129.258 95.6336 127.952 93.6024 128.13C91.5711 128.308 90.4207 129.935 90.613 132.132C90.8052 134.33 92.11 135.699 94.3123 135.506C96.1084 135.349 97.0861 134.21 97.1748 132.762C97.1673 132.677 97.119 132.617 97.0335 132.624L96.1354 132.703ZM90.269 134.85C90.269 134.85 90.1936 134.727 90.11 134.756C89.9231 134.837 89.6684 134.881 89.4118 134.903C88.8131 134.956 88.5128 134.724 88.4381 133.871L88.0779 129.753L89.6601 129.614C89.7456 129.607 89.8042 129.537 89.7967 129.452L89.7389 128.791C89.7389 128.791 89.6616 128.647 89.5761 128.654L87.9725 128.795L87.8306 127.173C87.8306 127.173 87.7748 127.028 87.6893 127.035L86.7057 127.121C86.7057 127.121 86.5616 127.198 86.5691 127.284L86.7109 128.905L85.9626 128.971C85.8771 128.978 85.8185 129.048 85.826 129.133L85.8838 129.794C85.8838 129.794 85.9611 129.938 86.0466 129.931L86.8163 129.863L87.1784 134.002C87.3128 135.538 88.2148 135.997 89.2625 135.905C89.5832 135.877 89.8965 135.764 90.167 135.654C90.2506 135.625 90.3073 135.534 90.2998 135.449L90.2476 134.852L90.269 134.85ZM84.4487 136.047C84.4487 136.047 84.5882 136.164 84.6737 136.156L85.8283 136.055C85.8283 136.055 85.9296 135.982 85.8813 135.922L82.9133 131.796L85.006 129.119C85.006 129.119 84.9967 129.012 84.9539 129.016L83.8207 129.115C83.8207 129.115 83.632 129.174 83.5734 129.244L81.1564 132.401L81.0892 131.633L80.725 126.978C80.7176 126.893 80.6478 126.834 80.5623 126.842L79.6001 126.926C79.6001 126.926 79.4561 127.003 79.4635 127.088L79.9383 131.776L80.2773 136.39C80.2773 136.39 80.3545 136.534 80.4401 136.527L81.4023 136.442C81.4023 136.442 81.5463 136.365 81.5389 136.28L81.3242 133.826L82.0936 132.77L83.805 135.093L84.4487 136.047ZM76.2939 136.911C76.2939 136.911 76.4379 136.834 76.4305 136.748L76.1038 133.015C76.1423 131.485 77.0643 130.695 78.2189 130.594C78.3686 130.581 78.4969 130.57 78.6271 130.58C78.7126 130.572 78.773 130.524 78.7655 130.439L78.7039 129.735C78.7039 129.735 78.6267 129.591 78.5393 129.577C78.4306 129.565 78.279 129.557 78.1507 129.568C77.1672 129.654 76.2888 130.204 75.8792 131.186L75.8388 129.985C75.8388 129.985 75.7616 129.842 75.676 129.849L74.7138 129.933C74.7138 129.933 74.5698 130.01 74.5772 130.096L74.9093 133.399L75.1689 136.859C75.1689 136.859 75.2462 137.002 75.3317 136.995L76.3152 136.909L76.2939 136.911ZM73.4928 137.156C73.4928 137.156 73.6369 137.079 73.6294 136.993L73.2648 133.564L73.0396 130.252C73.0396 130.252 72.9624 130.108 72.8769 130.115L71.9147 130.2C71.9147 130.2 71.7706 130.277 71.7781 130.362L71.8602 131.301C71.3421 130.551 70.5564 130.189 69.5515 130.277C67.6912 130.44 66.7659 132.176 66.9451 134.225C67.1243 136.273 68.2692 137.785 70.1936 137.617C71.1985 137.529 71.9272 136.992 72.3267 136.14L72.4144 137.143C72.4144 137.143 72.4702 137.288 72.5558 137.281L73.5179 137.197L73.4928 137.156ZM68.174 133.988C68.0396 132.452 68.545 131.333 69.8009 131.158C69.8651 131.153 70.1217 131.13 70.1644 131.127C71.2856 131.136 72.0167 132.104 72.1409 133.77C72.2744 135.543 71.6063 136.526 70.4089 136.63C69.0619 136.748 68.3429 135.672 68.1954 133.986M57.0339 134.468C57.1924 133.078 57.788 132.252 58.6006 132.181C59.4131 132.11 60.0157 132.595 60.1314 133.918L60.2732 135.539L60.4368 138.148C60.4368 138.148 60.514 138.291 60.5996 138.284L61.6045 138.196C61.6045 138.196 61.7486 138.119 61.7411 138.034L61.4492 135.436L61.3074 133.815C61.5041 132.615 62.0877 131.898 62.8574 131.83C63.6913 131.757 64.2725 132.244 64.3882 133.567L64.5301 135.188L64.7151 137.795C64.7151 137.795 64.7923 137.939 64.8778 137.931L65.8614 137.845C65.8614 137.845 66.0054 137.768 65.998 137.683L65.7703 135.08L65.6033 133.418C65.4353 131.497 64.5249 130.696 63.1564 130.815C62.1515 130.903 61.4693 131.479 61.042 132.505C60.6549 131.529 59.9064 131.1 58.88 131.189C57.8537 131.279 57.1809 131.962 56.8186 132.746L56.7699 131.697C56.7699 131.697 56.6926 131.553 56.6071 131.56L55.6663 131.643C55.6663 131.643 55.5222 131.72 55.5297 131.805L55.9346 135.94L56.0982 138.549C56.0982 138.549 56.1754 138.692 56.2609 138.685L57.2658 138.597C57.2658 138.597 57.4099 138.52 57.4025 138.435L57.132 135.836L57.0162 134.513L57.0339 134.468ZM53.404 138.784C53.404 138.784 53.5435 138.901 53.6504 138.892L54.8264 138.789C54.8264 138.789 54.9278 138.716 54.8794 138.655L52.0575 134.968C53.464 134.544 54.2622 133.571 54.1278 132.035C53.9636 130.158 52.5558 129.335 50.3534 129.528L47.0179 129.819C47.0179 129.819 46.8738 129.897 46.8813 129.982L47.3392 134.478L47.6932 139.263C47.6932 139.263 47.7704 139.406 47.856 139.399L48.8823 139.309C48.8823 139.309 49.0264 139.232 49.0189 139.147L48.6244 135.376L50.677 135.196L52.3502 137.329L53.3827 138.786L53.404 138.784ZM52.8896 132.165C53.0015 133.445 52.1929 134.053 50.91 134.166L48.558 134.371L48.303 130.717L50.5908 130.517C51.9593 130.398 52.8045 130.947 52.9109 132.163M45.7605 139.582C45.7605 139.582 45.9046 139.505 45.8971 139.42L45.4205 134.71L45.0852 130.139C45.0852 130.139 45.008 129.995 44.9224 130.003L43.9175 130.091C43.9175 130.091 43.7734 130.168 43.7809 130.253L44.2445 134.813L44.5928 139.534C44.5928 139.534 44.67 139.678 44.7556 139.67L45.7605 139.582ZM43.3871 139.79C43.3871 139.79 43.5098 139.715 43.4615 139.654L39.3335 130.642C39.3335 130.642 39.194 130.525 39.1084 130.533L37.74 130.653C37.74 130.653 37.5745 130.732 37.5374 130.799L35.0156 140.393C35.0156 140.393 35.0482 140.519 35.1123 140.514L36.1173 140.426C36.1173 140.426 36.2827 140.347 36.2985 140.281L36.979 137.47L40.9347 137.124L42.1144 139.772C42.1144 139.772 42.2539 139.889 42.3394 139.881L43.3658 139.792L43.3871 139.79ZM37.2901 136.346L38.4598 131.493L40.4974 136.065L37.2901 136.346ZM30.558 140.912C30.558 140.912 30.7021 140.835 30.6946 140.75L30.2777 136.723L34.5113 136.353C34.5113 136.353 34.6554 136.276 34.6479 136.19L34.5844 135.465C34.5844 135.465 34.5072 135.321 34.4217 135.329L30.1881 135.699L29.9592 132.344L34.3639 131.958C34.3639 131.958 34.5079 131.881 34.5005 131.796L34.437 131.071C34.437 131.071 34.3598 130.927 34.2743 130.934L28.6936 131.423C28.6936 131.423 28.5495 131.5 28.557 131.585L29.028 136.23L29.3708 140.887C29.3708 140.887 29.448 141.031 29.5335 141.023L30.5599 140.934L30.558 140.912Z" fill="black"/>
<path d="M105.675 113.681L101.741 114.025C101.796 112.687 102.413 111.859 103.568 111.758C104.829 111.648 105.555 112.552 105.696 113.679M106.045 115.454C106.045 115.454 105.88 115.533 105.888 115.618C105.761 116.64 105.168 117.251 104.142 117.34C102.752 117.462 101.968 116.628 101.798 114.923L106.972 114.47C106.972 114.47 107.116 114.393 107.109 114.308C106.843 112.009 105.544 110.704 103.512 110.882C101.481 111.059 100.331 112.686 100.523 114.884C100.715 117.081 102.02 118.45 104.222 118.258C106.019 118.101 106.996 116.962 107.085 115.514C107.077 115.428 107.029 115.368 106.944 115.375L106.045 115.454ZM99.311 118.515C99.311 118.515 99.4551 118.438 99.4476 118.353L98.971 113.644L98.6357 109.072C98.6357 109.072 98.5585 108.929 98.473 108.936L97.5108 109.02C97.5108 109.02 97.3667 109.097 97.3742 109.183L97.8396 113.764L98.1861 118.463C98.1861 118.463 98.2633 118.607 98.3489 118.6L99.311 118.515ZM96.4459 118.766C96.4459 118.766 96.5899 118.689 96.5825 118.604L96.2178 115.174L95.9926 111.862C95.9926 111.862 95.9154 111.718 95.8299 111.726L94.8677 111.81C94.8677 111.81 94.7236 111.887 94.7311 111.972L94.8132 112.911C94.2952 112.161 93.5095 111.8 92.5045 111.888C90.6443 112.05 89.7189 113.787 89.8981 115.835C90.0773 117.883 91.2222 119.395 93.1466 119.227C94.1516 119.139 94.8802 118.602 95.2797 117.75L95.3674 118.753C95.3674 118.753 95.4233 118.899 95.5088 118.891L96.471 118.807L96.4459 118.766ZM91.1271 115.598C90.9927 114.062 91.498 112.943 92.754 112.769C92.8181 112.763 93.0747 112.741 93.1175 112.737C94.2386 112.746 94.9697 113.714 95.0939 115.38C95.2274 117.153 94.5593 118.136 93.362 118.241C92.0149 118.358 91.2959 117.282 91.1484 115.596M84.1513 119.842C84.1513 119.842 84.2954 119.765 84.2879 119.679L84.0378 116.82L83.9444 115.754C84.1011 114.343 84.7627 113.532 85.7035 113.45C86.5802 113.373 87.2507 113.895 87.3627 115.175L87.7322 119.4C87.7322 119.4 87.7881 119.545 87.8736 119.538L88.8358 119.453C88.8358 119.453 88.9799 119.376 88.9724 119.291L88.7223 116.432L88.5777 115.026C88.4172 113.191 87.4351 112.31 85.9812 112.437C84.8479 112.536 84.1128 113.245 83.7486 114.008L83.6999 112.959C83.6999 112.959 83.6227 112.815 83.5372 112.823L82.6178 112.903C82.6178 112.903 82.4737 112.98 82.4812 113.065L82.8468 116.753L83.0515 119.831C83.0515 119.831 83.1287 119.974 83.2142 119.967L84.1978 119.881L84.1513 119.842ZM76.0175 117.006C75.8626 115.235 76.4591 114.173 77.8471 114.03C79.2155 113.91 79.9893 114.874 80.1442 116.645C80.2992 118.416 79.7222 119.455 78.3324 119.577C76.9425 119.699 76.1725 118.777 76.0175 117.006ZM81.4253 116.512C81.2312 114.293 79.905 112.925 77.7454 113.114C75.5858 113.303 74.5172 114.88 74.7132 117.12C74.9092 119.36 76.2317 120.685 78.3912 120.496C80.5508 120.307 81.6194 118.73 81.4253 116.512ZM73.5459 120.77C73.5459 120.77 73.6899 120.693 73.6825 120.607L73.3336 117.112L73.0908 113.844C73.0908 113.844 73.0136 113.7 72.928 113.708L71.9445 113.794C71.9445 113.794 71.8004 113.871 71.8079 113.956L72.1362 117.217L72.3977 120.698C72.3977 120.698 72.4749 120.842 72.5604 120.834L73.544 120.748L73.5459 120.77ZM72.8515 112.833C72.8515 112.833 72.9956 112.756 72.9881 112.671L72.8967 111.625C72.8967 111.625 72.8194 111.481 72.7339 111.489L71.7503 111.575C71.7503 111.575 71.6063 111.652 71.6137 111.737L71.7052 112.783C71.7052 112.783 71.7824 112.927 71.8679 112.919L72.8515 112.833ZM70.7661 120.518L70.4375 116.763L70.2042 114.097C70.1968 114.011 70.127 113.953 70.0415 113.96L69.1007 114.043C69.1007 114.043 68.9566 114.12 68.9641 114.205L69.0481 115.165C68.53 114.415 67.7443 114.054 66.7607 114.14C64.8577 114.306 63.9305 116.021 64.1041 118.006C64.2777 119.99 65.4365 121.415 67.425 121.241C68.4086 121.155 69.1392 120.639 69.5191 119.811L69.5882 120.6C69.7263 122.179 69.0591 122.925 67.8403 123.032C66.8567 123.118 66.1175 122.795 65.9146 121.953C65.9071 121.868 65.816 121.811 65.7304 121.819L64.811 121.899C64.811 121.899 64.667 121.976 64.6958 122.06C64.9547 123.542 66.2974 124.113 67.9205 123.949C69.9518 123.771 70.9861 122.541 70.7874 120.517M65.3619 117.852C65.2238 116.274 65.7524 115.174 66.9869 115.002C67.0511 114.996 67.2863 114.975 67.3504 114.97C68.493 114.977 69.2008 115.926 69.3464 117.59C69.4994 119.339 68.822 120.216 67.646 120.318C66.2989 120.436 65.5307 119.536 65.3814 117.829M61.7351 117.525L57.8008 117.869C57.8562 116.531 58.4732 115.703 59.6278 115.602C60.8894 115.492 61.6148 116.396 61.7565 117.523M62.0843 119.3C62.0843 119.3 61.9189 119.379 61.9264 119.464C61.8003 120.486 61.2073 121.097 60.181 121.186C58.7912 121.308 58.0072 120.474 57.8365 118.769L63.0109 118.316C63.0109 118.316 63.155 118.239 63.1475 118.154C62.8818 115.855 61.5826 114.55 59.5513 114.728C57.52 114.905 56.3696 116.532 56.5619 118.73C56.7541 120.927 58.0589 122.297 60.2613 122.104C62.0573 121.947 63.035 120.808 63.1237 119.36C63.1163 119.274 63.0679 119.214 62.9824 119.222L62.0843 119.3ZM53.6607 122.509C53.6607 122.509 53.8048 122.432 53.7973 122.347L53.4707 118.613C53.5092 117.084 54.4312 116.293 55.5858 116.192C55.7355 116.179 55.8638 116.168 55.9939 116.178C56.0794 116.171 56.1399 116.122 56.1324 116.037L56.0708 115.333C56.0708 115.333 55.9936 115.189 55.9062 115.176C55.7974 115.164 55.6459 115.155 55.5176 115.167C54.534 115.253 53.6557 115.802 53.246 116.784L53.2056 115.584C53.2056 115.584 53.1284 115.44 53.0429 115.448L52.0807 115.532C52.0807 115.532 51.9366 115.609 51.9441 115.694L52.2762 118.997L52.5358 122.457C52.5358 122.457 52.613 122.601 52.6985 122.594L53.6821 122.508L53.6607 122.509ZM46.0488 123.175C46.0488 123.175 46.1928 123.098 46.1854 123.013L45.8587 119.279C45.8972 117.75 46.8192 116.959 47.9738 116.858C48.1235 116.845 48.2518 116.834 48.382 116.844C48.4675 116.837 48.5279 116.788 48.5204 116.703L48.4588 115.999C48.4588 115.999 48.3816 115.855 48.2942 115.841C48.1855 115.83 48.0339 115.821 47.9056 115.832C46.9221 115.919 46.0437 116.468 45.634 117.45L45.5937 116.25C45.5937 116.25 45.5165 116.106 45.4309 116.113L44.4687 116.198C44.4687 116.198 44.3247 116.275 44.3321 116.36L44.6642 119.663L44.9238 123.123C44.9238 123.123 45.001 123.267 45.0866 123.26L46.0701 123.173L46.0488 123.175ZM41.9569 119.255L38.0226 119.599C38.0779 118.262 38.6949 117.434 39.8496 117.333C41.1111 117.222 41.8366 118.126 41.9569 119.255ZM42.3275 121.029C42.3275 121.029 42.162 121.108 42.1695 121.193C42.0434 122.214 41.4505 122.825 40.4241 122.915C39.0343 123.037 38.2503 122.202 38.0796 120.497L43.254 120.045C43.254 120.045 43.3981 119.968 43.3906 119.882C43.1249 117.584 41.8257 116.278 39.7944 116.456C37.7631 116.634 36.6128 118.261 36.805 120.458C36.9973 122.656 38.3021 124.025 40.5044 123.832C42.3005 123.675 43.2781 122.536 43.3669 121.088C43.3594 121.003 43.311 120.943 43.2255 120.95L42.3275 121.029ZM28.7882 119.698C28.7135 118.844 28.5369 116.087 28.5369 116.087L30.4399 115.92C32.3428 115.754 34.012 116.855 34.2341 119.393C34.4562 121.932 32.8539 123.319 31.1648 123.467L29.1976 123.639C29.1976 123.639 28.8684 120.615 28.79 119.719M31.1456 124.479C33.7328 124.253 35.8454 122.542 35.5579 119.256C35.2705 115.971 33.0425 114.639 30.2842 114.88L27.2694 115.144C27.2694 115.144 27.1253 115.221 27.1328 115.307L27.5926 119.824L27.9447 124.587C27.9447 124.587 28.022 124.731 28.1075 124.723L31.1437 124.458L31.1456 124.479Z" fill="black"/>
<path d="M240.916 125.002C255.37 123.738 263.591 114.032 262.414 100.57C261.236 87.1075 251.244 79.0384 237.003 80.2843C222.763 81.5302 214.573 91.1039 215.758 104.652C216.944 118.199 227.253 126.198 240.916 125.002ZM237.375 84.5299C249.712 83.4506 257.745 89.0683 258.779 100.888C259.813 112.707 252.627 119.721 240.546 120.778C228.465 121.835 220.418 116.046 219.399 104.398C218.38 92.7487 225.294 85.5869 237.375 84.5299Z" fill="black"/>
<path d="M230.455 103.947L231.971 96.8915L234.796 103.567L230.455 103.947ZM241.063 109.941C241.063 109.941 241.227 109.841 241.153 109.74L234.391 94.5085C234.339 94.4055 234.225 94.3295 234.118 94.3389L229.735 94.7224C229.628 94.7317 229.526 94.8051 229.495 94.9368L225.373 111.12C225.373 111.12 225.412 111.31 225.497 111.303L228.726 111.02C228.833 111.011 228.934 110.938 228.944 110.808L229.843 106.795L235.915 106.264L237.54 110.056C237.57 110.16 237.663 110.238 237.792 110.227L241.063 109.941Z" fill="black"/>
<path d="M247.948 109.338C247.948 109.338 248.133 109.236 248.124 109.129L247.33 101.287L246.918 95.8414L251.451 95.4448C251.451 95.4448 251.636 95.3426 251.627 95.236L251.432 93.0171C251.432 93.0171 251.33 92.8326 251.223 92.842L238.587 93.9475C238.587 93.9475 238.402 94.0497 238.411 94.1564L238.605 96.3752C238.605 96.3752 238.707 96.5597 238.814 96.5504L243.347 96.1538L243.887 101.589L244.467 109.449C244.467 109.449 244.57 109.634 244.677 109.624L247.969 109.336L247.948 109.338Z" fill="black"/>
<path d="M122.186 132.724L134.801 131.62L134.676 130.191C130.806 130.529 130.257 129.675 129.888 125.45L127.989 103.753C130.473 100.375 132.905 97.8835 136.22 97.5936C139.042 97.3467 140.942 99.1153 141.3 103.212L143.144 124.29C143.514 128.515 143.101 129.454 139.252 129.791L139.377 131.22L151.928 130.122L151.803 128.692C147.869 129.037 147.299 128.184 146.929 123.959L145.066 102.667C144.583 97.1414 142.186 93.6319 137.289 94.0603C133.141 94.4232 130.616 97.3314 128 101.408L127.786 101.427L127.284 95.6881L126.32 95.0199L119.143 98.6792L119.818 99.996C123.737 97.9977 123.738 98.7501 124.115 103.06L126.103 125.781C126.473 130.006 125.995 130.95 122.061 131.295L122.186 132.724ZM178.044 120.549C178.379 125.12 177.387 126.583 175.933 126.71C174.821 126.808 173.852 126.075 173.524 122.321L171.691 101.37C171.058 94.1372 167.005 91.396 161.83 91.8488C156.036 92.3557 152.029 96.5544 152.447 101.333C152.638 103.51 153.738 105.004 155.598 104.841C157.116 104.709 157.866 103.676 157.741 102.246C157.616 100.817 156.6 100.282 156.456 98.6394C156.236 96.1219 158.375 94.4728 161.347 94.2128C165.004 93.8929 167.391 95.8124 167.91 101.743L168.25 105.626C160.976 109.917 151.999 114.68 152.74 123.15C153.117 127.46 155.913 130.848 160.467 130.45C165.022 130.051 168.16 126.273 169.428 119.347L169.667 122.077C170.11 127.134 172.12 129.43 175.221 129.159C178.941 128.833 179.794 125.04 179.453 120.404L177.999 120.532L178.044 120.549ZM161.362 126.889C158.54 127.136 156.947 124.932 156.678 121.86C156.11 115.374 162.51 111.439 168.425 107.632L169.136 115.76C167.649 123.393 164.463 126.617 161.341 126.891" fill="black"/>
<path d="M125.064 84.5958L138.95 50.9832L138.825 49.5537L118.191 51.3589L119.058 61.2583L120.704 61.1143C120.112 54.3511 120.939 53.4618 125.707 53.0447L134.41 52.2833L120.524 85.896L120.435 87.3441L141.346 85.5146L140.361 74.2498L138.778 74.3882C139.477 82.3674 138.598 83.4117 133.894 83.8232L125.064 84.5958Z" fill="black"/>
<path d="M116.338 80.4141C116.673 84.9854 115.681 86.4481 114.227 86.5753C113.115 86.6726 112.146 85.9404 111.818 82.1855L109.985 61.2347C109.352 54.0021 105.299 51.261 100.124 51.7137C94.3297 52.2207 90.3233 56.4194 90.7414 61.1984C90.9318 63.3745 92.0321 64.8691 93.8923 64.7064C95.4104 64.5736 96.1603 63.5405 96.0353 62.1111C95.9102 60.6817 94.8939 60.1471 94.7502 58.5044C94.5299 55.9868 96.6695 54.3378 99.6416 54.0778C103.298 53.7579 105.685 55.6773 106.204 61.6084L106.544 65.4914C99.2703 69.7824 90.2932 74.545 91.0342 83.0149C91.4112 87.3246 94.207 90.7132 98.7613 90.3147C103.316 89.9162 106.454 86.1375 107.722 79.2116L107.961 81.9424C108.404 86.9988 110.414 89.2952 113.515 89.0239C117.235 88.6984 118.088 84.9046 117.747 80.2693L116.293 80.3965L116.338 80.4141ZM99.6563 86.7537C96.8339 87.0006 95.2406 84.7967 94.9718 81.7245C94.4044 75.2387 100.804 71.3036 106.719 67.4969L107.43 75.6254C105.943 83.2584 102.757 86.4824 99.6349 86.7556" fill="black"/>
<path d="M216.046 124.684C217.842 124.527 219.171 122.97 219.022 121.264C218.872 119.557 217.288 118.191 215.492 118.348C213.695 118.505 212.452 120.054 212.607 121.825C212.762 123.596 214.335 124.834 216.046 124.684Z" fill="black"/>
<path d="M205.408 118.843L203.546 97.5506C203.062 92.0249 200.729 88.5098 195.833 88.9382C191.685 89.3011 189.16 92.2092 186.543 96.2863L186.329 96.305L184.398 74.2235L183.648 73.5366L181.263 74.8417L176.539 77.4908L177.252 78.7398C180.866 76.7038 180.791 77.3337 181.154 81.4727L184.645 120.638C185.014 124.862 184.537 125.807 180.602 126.151L180.728 127.581L193.343 126.477L193.218 125.047C189.348 125.386 188.799 124.531 188.429 120.307L186.531 98.6092C188.951 95.2373 191.447 92.7401 194.761 92.4501C197.519 92.2088 199.476 93.8865 199.842 98.0681L201.688 119.168C202.057 123.393 201.644 124.332 197.795 124.668L197.92 126.098L210.472 125L210.347 123.57C206.348 123.92 205.778 123.067 205.408 118.843Z" fill="black"/>
<path d="M173.165 79.3124C169.353 81.3013 169.346 80.4849 168.979 76.282L166.453 47.4159L165.639 46.7346L158.154 50.0768L158.765 51.3992C162.788 49.6069 162.854 50.3536 163.223 54.5779L165.08 75.8061C162.986 78.9561 159.966 81.6281 156.93 81.8937C154.172 82.135 152.539 80.2141 152.169 75.9898L149.799 48.8945L148.985 48.2132L141.499 51.5554L142.111 52.8778C146.134 51.0854 146.199 51.8322 146.569 56.0565L148.383 76.794C148.855 82.1917 151.258 85.7652 155.748 85.3723C159.96 85.0038 163.289 81.6813 165.136 78.166L165.355 78.2113L165.962 83.6618L166.925 84.33L168.921 83.2525L173.99 80.6161L173.274 79.3244L173.165 79.3124Z" fill="black"/>
<path d="M80.7095 45.2862C82.5698 45.1234 83.8987 43.5668 83.7437 41.796C83.5888 40.0252 82.0098 38.723 80.1496 38.8857C78.2893 39.0485 76.9548 40.5411 77.1154 42.3759C77.2759 44.2107 78.8493 45.4489 80.7095 45.2862ZM81.2393 105.521C86.6276 105.049 88.2435 99.8774 87.5752 92.2395L84.221 53.9007L83.2577 53.2326L75.6635 57.0572L76.3389 58.374C80.5245 56.2235 80.5898 56.9702 80.9669 61.2798L83.6585 92.0447C84.2072 98.3172 84.2191 103.132 81.6532 103.356C80.4131 103.465 79.8317 102.484 79.4231 101.015C78.913 99.1243 78.0779 98.4449 76.6453 98.5703C74.9134 98.7218 74.2658 99.9394 74.3928 101.39C74.6074 103.844 77.2856 105.888 81.2198 105.544" fill="black"/>
</g>
<defs>
<clipPath id="clip0_868_874">
<rect width="273.789" height="138.071" fill="white" transform="translate(0 23.8623) rotate(-5)"/>
</clipPath>
</defs>
</svg>
