<svg width="105" height="58" viewBox="0 0 105 58" fill="none" xmlns="http://www.w3.org/2000/svg">
<g id="Positive">
<g id="Group">
<g id="Group_2">
<path id="Vector" d="M91.8014 34.2547C98.7438 34.2547 102.95 37.8162 102.95 44.5419C102.95 51.2676 98.5965 54.8652 91.8014 54.8652C85.0062 54.8652 80.7947 51.1954 80.7947 44.578C80.7947 37.9607 85.0034 34.2547 91.8014 34.2547ZM91.8014 57.2738C99.93 57.2738 105 52.2038 105 44.5419C105 36.88 99.8217 31.8461 91.8014 31.8461C83.7811 31.8461 78.7444 36.8467 78.7444 44.5419C78.7444 52.2372 84.1033 57.2738 91.8014 57.2738Z" fill="black"></path>
<path id="Vector_2" d="M92.6098 48.7785C92.6626 48.7785 92.7015 48.7257 92.6765 48.6729L89.6456 39.7386C89.6206 39.672 89.5678 39.6331 89.5011 39.6331H87.0314C86.9647 39.6331 86.9147 39.672 86.887 39.7386L83.7922 48.6729C83.7672 48.7257 83.8061 48.7785 83.8589 48.7785H85.6729C85.7396 48.7785 85.7896 48.7396 85.8035 48.6729L86.4953 46.4533H89.9178L90.6374 48.6729C90.6513 48.7396 90.704 48.7785 90.7679 48.7785H92.6098ZM86.9814 44.8753L88.1704 40.9693L89.4233 44.8753H86.9814Z" fill="black"></path>
<path id="Vector_3" d="M96.488 48.7785C96.5408 48.7785 96.5936 48.7257 96.5936 48.6729L96.5269 44.2058L96.5658 41.111H99.1133C99.166 41.111 99.2188 41.0582 99.2188 41.0055V39.7386C99.2188 39.6859 99.166 39.6331 99.1133 39.6331H92.0097C91.957 39.6331 91.9042 39.6859 91.9042 39.7386V41.0055C91.9042 41.0582 91.957 41.111 92.0097 41.111H94.5572L94.5961 44.2058L94.5294 48.6729C94.5294 48.7257 94.5822 48.7785 94.635 48.7785H96.4908H96.488Z" fill="black"></path>
</g>
<path id="Vector_4" d="M47.2911 54.4068C45.6993 54.4068 44.9242 53.0873 44.9242 51.3399C44.9242 47.6534 48.6885 45.7504 52.1805 43.8891V48.5062C50.9776 52.7372 49.0357 54.4041 47.2911 54.4041M56.9143 51.651C56.8755 54.2513 56.2559 55.0264 55.4392 55.0264C54.8169 55.0264 54.3141 54.5596 54.3141 52.4261V40.5109C54.3141 36.3966 52.1805 34.652 49.2691 34.652C46.0104 34.652 43.5629 36.8244 43.5629 39.5414C43.5629 40.7832 44.1074 41.6749 45.1548 41.6749C46.0076 41.6749 46.4743 41.1304 46.4743 40.3165C46.4743 39.5025 45.9298 39.1525 45.9298 38.2218C45.9298 36.7855 47.2105 35.9716 48.8802 35.9716C50.9359 35.9716 52.1805 37.1745 52.1805 40.5498V42.7612C47.9106 44.8169 42.6712 47.07 42.6712 51.8816C42.6712 54.3263 44.0685 56.3848 46.6299 56.3848C49.1913 56.3848 51.1332 54.4068 52.1805 50.562V52.1149C52.1805 54.9875 53.189 56.3848 54.9364 56.3848C57.031 56.3848 57.6922 54.2902 57.7311 51.651H56.9171H56.9143ZM25.1415 55.7653H32.2451V54.9514C30.0726 54.9514 29.8004 54.4457 29.8004 52.0399V39.6997C31.3533 37.9134 32.8285 36.6327 34.6898 36.6327C36.2816 36.6327 37.2512 37.719 37.2512 40.047V52.0399C37.2512 54.4457 36.9789 54.9514 34.8065 54.9514V55.7653H41.8711V54.9514C39.6597 54.9514 39.3875 54.4457 39.3875 52.0399V39.9303C39.3875 36.7855 38.2235 34.6909 35.4676 34.6909C33.1396 34.6909 31.5867 36.2049 29.917 38.3774H29.8004V35.1187L29.2948 34.6909L25.1026 36.3994L25.4138 37.1745C27.7029 36.2438 27.664 36.6689 27.664 39.1163V52.0399C27.664 54.4457 27.3529 54.9514 25.1415 54.9514V55.7653Z" fill="black"></path>
<path id="Vector_5" d="M29.0892 28.7458L38.4819 10.4661V9.65212H26.8779V15.2805H27.8085C27.8085 11.4384 28.3141 10.9717 30.9894 10.9717H35.8788L26.4862 29.2514L26.3695 30.0654H38.1291V23.6619H37.2373C37.2373 28.2013 36.6928 28.7458 34.0536 28.7458H29.0864H29.0892Z" fill="black"></path>
<path id="Vector_6" d="M14.8016 28.7069C13.2097 28.7069 12.4346 27.3873 12.4346 25.6399C12.4346 21.9534 16.1989 20.0504 19.691 18.1891V22.8063C18.4881 27.0373 16.5462 28.7041 14.8016 28.7041M24.4276 25.9511C24.3887 28.5513 23.7692 29.3264 22.9524 29.3264C22.3301 29.3264 21.8273 28.8597 21.8273 26.7261V14.811C21.8273 10.6967 19.6937 8.95204 16.7823 8.95204C13.5236 8.95204 11.0762 11.1245 11.0762 13.8414C11.0762 15.0832 11.6207 15.975 12.668 15.975C13.5209 15.975 13.9876 15.4305 13.9876 14.6165C13.9876 13.8026 13.4431 13.4525 13.4431 12.5219C13.4431 11.0856 14.7238 10.2716 16.3934 10.2716C18.4492 10.2716 19.691 11.4745 19.691 14.8499V17.0612C15.4211 19.117 10.1816 21.37 10.1816 26.1816C10.1816 28.6263 11.579 30.6849 14.1404 30.6849C16.7018 30.6849 18.6436 28.7069 19.691 24.8621V26.415C19.691 29.2875 20.6994 30.6849 22.4468 30.6849C24.5415 30.6849 25.2027 28.5902 25.2416 25.9511H24.4276Z" fill="black"></path>
<path id="Vector_7" d="M77.9249 55.8626C78.9334 55.8626 79.7501 55.0486 79.7501 54.0763C79.7501 53.1039 78.9362 52.2511 77.9249 52.2511C76.9137 52.2511 76.1386 53.065 76.1386 54.0763C76.1386 55.0875 76.9526 55.8626 77.9249 55.8626Z" fill="black"></path>
<path id="Vector_8" d="M72.2688 52.0372V39.9275C72.2688 36.7828 71.1436 34.6881 68.3878 34.6881C66.0598 34.6881 64.5068 36.2022 62.8372 38.3746H62.7205V25.8233L62.3316 25.3955L60.9342 26.0177L58.17 27.279L58.5034 28.0235C60.6147 27.0567 60.5481 27.404 60.5481 29.7598L60.587 52.0344C60.587 54.4402 60.2758 54.9458 58.0645 54.9458V55.7598H65.1652V54.9458C62.9928 54.9458 62.7205 54.4402 62.7205 52.0344V39.6942C64.2346 37.9079 65.7486 36.6272 67.6099 36.6272C69.1629 36.6272 70.1713 37.6745 70.1713 40.0414V52.0344C70.1713 54.4402 69.8991 54.9458 67.7266 54.9458V55.7598H74.7912V54.9458C72.541 54.9458 72.2688 54.4402 72.2688 52.0344V52.0372Z" fill="black"></path>
<path id="Vector_9" d="M56.2087 28.143C53.9835 29.0736 54.0141 28.6208 54.0141 26.2233V9.8077L53.5862 9.37988L49.2385 10.8939L49.5108 11.669C51.8388 10.855 51.8388 11.2801 51.8388 13.6859V25.7566C50.5192 27.4262 48.694 28.7847 46.9883 28.7847C45.4354 28.7847 44.6214 27.6207 44.6214 25.2149V9.8077L44.1936 9.37988L39.8459 10.8939L40.1181 11.669C42.4462 10.855 42.4462 11.2801 42.4462 13.6859V25.4844C42.4462 28.5513 43.6102 30.6849 46.1327 30.6849C48.4996 30.6849 50.5192 28.9764 51.7221 27.0762L51.8388 27.1151L51.9166 30.221L52.4222 30.6488L53.5862 30.1432L56.5477 28.9069L56.2087 28.143Z" fill="black"></path>
<path id="Vector_10" d="M3.60859 38.3968C6.63669 38.3968 7.8007 35.5632 7.8007 31.2183V9.41876L7.2951 8.99094L2.86963 10.7772L3.18077 11.5523C5.62547 10.5439 5.62547 10.9717 5.62547 13.4164V30.9071C5.62547 34.477 5.39212 37.1939 3.95585 37.1939C3.25856 37.1939 2.98631 36.6105 2.83073 35.7577C2.63627 34.6714 2.20845 34.2436 1.39447 34.2436C0.424924 34.2436 -0.00289917 34.902 -0.00289917 35.7188C-0.00289917 37.1161 1.39447 38.3968 3.60582 38.3968M6.24776 4.37378C7.2951 4.37378 8.11185 3.55981 8.11185 2.54859C8.11185 1.53737 7.2951 0.726173 6.24776 0.726173C5.20043 0.726173 4.38368 1.50126 4.38368 2.55137C4.38368 3.60148 5.19765 4.37656 6.24776 4.37656" fill="black"></path>
</g>
</g>
</svg>