<svg width="51" height="50" viewBox="0 0 51 50" fill="none" xmlns="http://www.w3.org/2000/svg">
<g id="Group">
<path id="Vector" d="M25.734 5.18324C39.0237 5.18324 47.0752 12.0009 47.0752 24.8759C47.0752 37.7508 38.7419 44.6377 25.734 44.6377C12.7261 44.6377 4.66395 37.6125 4.66395 24.945C4.66395 12.2775 12.7208 5.18324 25.734 5.18324ZM25.734 49.2484C41.2945 49.2484 50.9999 39.543 50.9999 24.8759C50.9999 10.2088 41.0871 0.57251 25.734 0.57251C10.3808 0.57251 0.739258 10.145 0.739258 24.8759C0.739258 39.6068 10.9977 49.2484 25.734 49.2484Z" fill="white"/>
<path id="Vector_2" d="M27.2815 32.9859C27.3825 32.9859 27.457 32.8848 27.4091 32.7838L21.6071 15.681C21.5593 15.5534 21.4582 15.4789 21.3306 15.4789H16.6029C16.4753 15.4789 16.3795 15.5534 16.3264 15.681L10.4021 32.7838C10.3542 32.8848 10.4287 32.9859 10.5297 32.9859H14.0024C14.13 32.9859 14.2257 32.9114 14.2523 32.7838L15.5765 28.5347H22.1283L23.5057 32.7838C23.5323 32.9114 23.6333 32.9859 23.7556 32.9859H27.2815ZM16.5072 25.514L18.7833 18.0369L21.1817 25.514H16.5072Z" fill="white"/>
<path id="Vector_3" d="M34.7054 32.9859C34.8064 32.9859 34.9075 32.8848 34.9075 32.7838L34.7798 24.2324L34.8543 18.3081H39.7309C39.832 18.3081 39.933 18.2071 39.933 18.106V15.681C39.933 15.58 39.832 15.4789 39.7309 15.4789H26.1328C26.0317 15.4789 25.9307 15.58 25.9307 15.681V18.106C25.9307 18.2071 26.0317 18.3081 26.1328 18.3081H31.0094L31.0838 24.2324L30.9562 32.7838C30.9562 32.8848 31.0572 32.9859 31.1583 32.9859H34.7107H34.7054Z" fill="white"/>
</g>
</svg>
