<svg xmlns="http://www.w3.org/2000/svg" xmlns:xlink="http://www.w3.org/1999/xlink" x="0px" y="0px" viewBox="0 0 121.71 123.48" style="enable-background:new 0 0 121.71 123.48" xml:space="preserve">
<style type="text/css">.st0{fill-rule:evenodd;clip-rule:evenodd;stroke:#000000;stroke-width:0.5;stroke-miterlimit:2.6131;}</style>
<g><path class="st0" d="M74.62,51.11c1.04,1.04,1.04,2.74,0,3.78c-1.04,1.04-2.74,1.04-3.78,0l-15.9-15.9 c-9.08,10.3-17.08,21.17-24.14,32.36l9.82,9.82c1.04,1.04,1.04,2.74,0,3.78c-1.04,1.04-2.74,1.04-3.78,0l-8.92-8.92l-0.01,0.02 c-7.84,13.01-14.43,26.4-20,39.82c6.33-2.21,12.85-4.94,19.57-8.25L20,100.16c-1.04-1.04-1.04-2.74,0-3.78 c1.04-1.04,2.74-1.04,3.78,0l8.69,8.69c3.87-2.04,7.81-4.28,11.82-6.73c7.26-4.43,14.76-9.55,22.52-15.43L50.69,66.79 c-1.04-1.04-1.04-2.74,0-3.78c1.04-1.04,2.74-1.04,3.78,0l16.61,16.61c5.57-4.37,11.28-9.13,17.14-14.32l1.01-0.9l0,0 c-0.14,0.13-0.23,0.2,0,0c4.82-4.24,7.98-7.03,7.53-12.98c-0.03-0.43-0.08-0.85-0.13-1.26c-0.06-0.43-0.14-0.89-0.24-1.4 c-0.45-2.33-1.37-4.63-2.62-6.83c-1.37-2.4-3.15-4.68-5.17-6.72c-1.8-1.82-3.8-3.45-5.89-4.84c-2.08-1.38-4.23-2.49-6.35-3.28 c-0.49-0.18-1-0.35-1.53-0.5c-0.51-0.14-0.97-0.25-1.39-0.33c-6.15-1.15-9.92,3.1-14.47,8.22L58.5,35L74.62,51.11L74.62,51.11z M121.36,36.37c-5.08-6.22-10.67-9.29-16.95-9.26c7.67-5.38,13.09-14.64,13.99-23.76C108.05,4.7,99.62,10,94.58,18.02 c0.28-6.57-2.78-12.4-9.24-17.67c-4.88,6.13-6.97,15.19-2.8,23.32c-1.39-0.74-2.8-1.37-4.21-1.9c-0.72-0.27-1.37-0.48-1.97-0.65 c-0.62-0.18-1.25-0.32-1.9-0.44c-9.29-1.73-14.02,3.61-19.74,10.05c-0.62,0.7-1.26,1.41-1.74,1.94 c-11.61,12.8-21.5,26.42-29.96,40.45c-8.46,14.04-15.49,28.51-21.37,42.99c-0.39,0.96-0.45,1.09-0.49,1.2 c-0.99,2.34-1.47,3.48,0.11,5c1.44,1.38,2.55,0.99,4.73,0.22c0.57-0.2,1.26-0.45,1.42-0.5c12.57-4.18,25.78-10.27,39.82-18.84 c13.99-8.54,28.83-19.57,44.73-33.64c2.12-1.88-0.39,0.35,1.01-0.88c6.1-5.37,10.12-8.91,9.44-17.67c-0.04-0.49-0.1-1.03-0.18-1.61 c-0.08-0.57-0.17-1.13-0.28-1.69c-0.54-2.78-1.58-5.49-2.99-8.07C106.86,43.17,115.46,41.06,121.36,36.37L121.36,36.37z M89.23,64.4C89.87,63.83,89.47,64.18,89.23,64.4L89.23,64.4L89.23,64.4z"/>
</g></svg>